<?xml version="1.0" standalone="no"?>
<!DOCTYPE svg PUBLIC "-//W3C//DTD SVG 20010904//EN"
 "http://www.w3.org/TR/2001/REC-SVG-20010904/DTD/svg10.dtd">
<svg version="1.0" xmlns="http://www.w3.org/2000/svg"
 width="400.000000pt" height="400.000000pt" viewBox="0 0 400.000000 400.000000"
 preserveAspectRatio="xMidYMid meet">

<g transform="translate(0.000000,400.000000) scale(0.100000,-0.100000)"
fill="#000000" stroke="none">
<path d="M1735 3689 c-201 -7 -275 -20 -406 -73 -153 -62 -325 -197 -426 -337
-53 -72 -124 -203 -163 -303 -37 -92 -56 -178 -225 -1041 -70 -352 -129 -650
-132 -663 l-5 -22 233 2 233 3 9 45 c4 25 73 373 152 773 154 779 156 784 240
902 78 110 178 184 305 227 60 21 90 23 395 28 l330 5 46 228 c25 125 45 228
45 228 -2 5 -475 3 -631 -2z"/>
<path d="M2521 3668 c-5 -18 -69 -276 -141 -573 -309 -1279 -335 -1380 -355
-1383 -24 -5 -30 -45 115 768 16 91 43 244 60 340 17 96 38 210 46 254 13 66
14 80 2 87 -15 10 -419 10 -435 1 -6 -4 -52 -209 -102 -457 -50 -247 -129
-639 -176 -870 -93 -455 -115 -566 -115 -577 0 -5 222 -8 493 -8 l494 0 21 93
c12 50 102 430 201 842 98 413 194 811 211 885 18 74 59 243 91 375 32 132 57
241 55 242 -1 2 -104 5 -228 8 l-226 6 -11 -33z"/>
<path d="M2721 2458 c-10 -27 -91 -412 -91 -433 0 -13 40 -15 278 -15 257 0
279 -1 309 -20 48 -29 66 -63 61 -114 -7 -56 -38 -97 -102 -132 l-51 -28 -292
-4 c-260 -4 -293 -6 -297 -21 -3 -9 -24 -104 -46 -211 -23 -107 -43 -203 -46
-213 -6 -18 8 -18 328 -15 309 4 338 6 408 27 256 76 427 250 491 498 23 93
25 241 4 331 -47 197 -189 336 -370 362 -38 5 -184 10 -323 10 l-252 0 -9 -22z"/>
<path d="M1115 2448 c-10 -42 -85 -422 -85 -430 0 -4 114 -8 254 -8 l254 0 11
48 c6 26 24 119 41 207 18 88 34 170 37 183 l5 22 -256 0 -256 0 -5 -22z"/>
<path d="M1783 1189 c-25 -9 -31 -29 -9 -29 14 0 42 27 35 34 -2 2 -14 0 -26
-5z"/>
<path d="M320 1040 l0 -110 25 0 c23 0 25 3 25 50 l0 50 35 0 c19 0 35 5 35
10 0 6 -16 10 -35 10 -33 0 -35 2 -35 35 0 33 2 35 35 35 24 0 35 5 35 15 0
12 -13 15 -60 15 l-60 0 0 -110z"/>
<path d="M469 1138 c-1 -14 0 -174 1 -195 0 -20 116 -18 124 2 4 12 -4 15 -39
15 -45 0 -45 0 -45 35 0 34 1 35 40 35 22 0 40 5 40 10 0 6 -18 10 -41 10 -39
0 -40 1 -37 33 3 29 6 32 41 35 24 2 37 8 37 18 0 19 -120 21 -121 2z"/>
<path d="M630 1040 l0 -110 45 0 c51 0 99 20 109 45 3 9 6 39 6 67 0 41 -5 54
-29 79 -25 24 -37 29 -80 29 l-51 0 0 -110z m105 58 c6 -5 10 -32 10 -59 0
-39 -5 -54 -20 -65 -37 -27 -50 -14 -53 55 -4 80 1 94 30 86 13 -4 28 -11 33
-17z"/>
<path d="M830 1040 l0 -110 65 0 c50 0 65 3 65 14 0 10 -14 16 -42 18 -40 3
-43 5 -46 36 -3 32 -3 32 42 32 58 0 60 18 4 22 -40 3 -43 5 -43 33 0 27 3 30
38 33 24 2 37 8 37 18 0 11 -14 14 -60 14 l-60 0 0 -110z"/>
<path d="M990 1040 l0 -110 25 0 c23 0 25 4 25 44 0 25 4 47 9 51 5 3 22 -17
37 -45 27 -49 28 -50 75 -50 39 0 49 4 54 20 9 29 77 28 97 -1 8 -13 21 -20
34 -17 20 3 19 8 -25 110 -25 59 -50 106 -55 105 -5 -2 -27 -46 -50 -99 -23
-53 -44 -99 -48 -103 -4 -4 -19 12 -33 36 -26 40 -27 44 -11 70 36 60 5 99
-79 99 l-55 0 0 -110z m91 70 c5 0 9 -13 9 -30 0 -16 -4 -30 -9 -30 -5 0 -16
-3 -25 -6 -13 -5 -16 2 -16 36 0 34 3 41 16 36 9 -3 20 -6 25 -6z m209 -117
c0 -14 -46 -18 -54 -5 -2 4 3 23 11 42 l15 35 14 -30 c7 -16 13 -36 14 -42z"/>
<path d="M1429 1135 c-57 -31 -65 -139 -13 -183 34 -29 117 -29 122 1 3 16 -1
17 -31 12 -28 -6 -39 -3 -56 14 -24 24 -28 86 -7 113 21 28 85 29 87 1 0 -10
5 -5 10 12 6 20 5 32 -4 37 -19 12 -80 8 -108 -7z"/>
<path d="M1590 1040 c0 -103 1 -110 20 -110 19 0 20 7 20 110 0 103 -1 110
-20 110 -19 0 -20 -7 -20 -110z"/>
<path d="M1713 1135 c-31 -22 -47 -85 -33 -135 13 -49 42 -70 96 -70 59 0 94
41 94 112 0 41 -5 54 -29 79 -34 33 -91 40 -128 14z m105 -92 c4 -75 -35 -106
-78 -63 -33 33 -21 124 17 133 36 8 58 -17 61 -70z"/>
<path d="M1910 1040 c0 -102 1 -110 20 -110 16 0 19 8 22 62 l3 63 49 -63 c27
-34 53 -62 57 -62 5 0 9 50 9 110 0 102 -1 110 -20 110 -16 0 -19 -8 -22 -62
l-3 -62 -50 62 c-27 34 -53 62 -57 62 -5 0 -8 -49 -8 -110z"/>
<path d="M2196 1043 c-39 -93 -43 -109 -28 -112 9 -2 23 6 30 18 20 29 88 30
97 1 4 -13 15 -20 32 -20 16 0 23 4 20 13 -37 93 -91 207 -97 207 -5 0 -29
-48 -54 -107z m71 -25 c13 -30 9 -38 -24 -38 -26 0 -29 16 -11 55 12 27 18 25
35 -17z"/>
<path d="M2370 1039 c0 -109 0 -110 23 -107 20 3 22 8 21 61 -1 31 2 57 6 57
4 0 28 -27 54 -60 26 -33 52 -60 57 -60 5 0 9 49 9 110 0 103 -1 110 -20 110
-18 0 -20 -7 -20 -60 0 -33 -4 -60 -8 -60 -4 0 -28 27 -53 60 -24 32 -50 59
-56 60 -10 0 -13 -29 -13 -111z"/>
<path d="M2580 1040 l0 -110 54 0 c71 0 105 26 113 87 11 85 -33 133 -122 133
l-45 0 0 -110z m108 58 c6 -6 12 -32 12 -59 0 -38 -4 -51 -22 -63 -42 -30 -48
-22 -48 65 0 79 0 80 23 73 12 -3 28 -11 35 -16z"/>
<path d="M2821 1073 c-68 -158 -64 -143 -37 -143 15 0 26 7 29 20 4 16 14 20
45 20 32 0 42 -4 47 -20 4 -13 15 -20 31 -20 13 0 24 2 24 5 0 13 -93 215 -99
215 -4 0 -22 -35 -40 -77z m56 -55 c13 -30 9 -38 -24 -38 -26 0 -27 5 -12 49
12 34 18 32 36 -11z"/>
<path d="M2980 1040 l0 -110 70 0 c56 0 70 3 70 15 0 11 -12 15 -45 15 l-45 0
0 95 c0 95 0 95 -25 95 l-25 0 0 -110z"/>
<path d="M3142 1061 c2 -70 7 -93 22 -110 23 -25 81 -28 114 -5 20 14 22 23
22 110 0 87 -1 94 -20 94 -19 0 -20 -7 -20 -90 0 -75 -3 -92 -16 -97 -37 -14
-49 10 -52 101 -3 85 -3 86 -28 86 l-26 0 4 -89z"/>
<path d="M3340 1135 c0 -14 30 -21 68 -16 19 3 15 -9 -33 -89 -25 -41 -45 -81
-45 -87 0 -10 27 -13 104 -13 95 0 104 2 109 20 4 16 14 20 45 20 32 0 42 -4
47 -20 4 -13 15 -20 32 -20 16 0 23 4 20 13 -37 91 -91 207 -97 207 -4 0 -27
-47 -51 -105 -29 -72 -46 -102 -53 -95 -5 5 -29 10 -53 10 -24 0 -43 3 -43 8
0 4 21 41 45 82 25 41 45 80 45 87 0 9 -19 13 -70 13 -56 0 -70 -3 -70 -15z
m267 -117 c13 -30 9 -38 -24 -38 -26 0 -27 5 -12 49 12 34 18 32 36 -11z"/>
<path d="M338 780 l-37 -20 60 -137 c34 -76 79 -180 101 -230 61 -141 63 -140
176 119 51 117 95 222 98 233 4 17 -3 25 -35 40 -23 10 -43 16 -45 14 -2 -2
-30 -67 -61 -144 -32 -77 -61 -144 -65 -148 -4 -4 -35 60 -70 142 -35 83 -68
151 -74 151 -6 -1 -28 -10 -48 -20z"/>
<path d="M935 781 c-86 -40 -125 -110 -125 -224 0 -173 82 -263 232 -255 85 5
140 39 177 113 22 42 26 62 26 140 -1 97 -18 146 -67 192 -57 53 -168 69 -243
34z m146 -81 c34 -19 51 -67 51 -149 1 -119 -29 -161 -111 -161 -70 0 -101 47
-101 156 0 68 19 131 47 152 20 15 87 16 114 2z"/>
<path d="M1360 555 l0 -245 123 -1 c126 -1 169 0 176 7 2 1 0 19 -3 38 l-7 35
-72 0 c-40 0 -82 0 -94 0 l-23 1 0 205 0 205 -50 0 -50 0 0 -245z"/>
<path d="M1750 556 l0 -245 135 -3 c75 -2 140 -1 145 0 6 2 10 22 10 43 l0 40
-87 -2 -88 -2 -3 71 -3 72 91 0 c89 0 90 0 90 25 0 25 -1 25 -90 25 l-90 0 0
70 0 70 85 0 85 0 0 40 0 40 -140 0 -140 0 0 -244z"/>
<path d="M2160 555 l0 -245 56 0 55 0 -2 232 c-1 128 -4 238 -6 245 -3 8 -24
13 -54 13 l-49 0 0 -245z"/>
<path d="M2407 793 c-4 -3 -7 -114 -7 -245 0 -183 3 -238 13 -239 107 -4 255
4 279 17 83 43 91 165 15 216 l-34 22 33 32 c29 27 34 38 34 76 0 54 -27 94
-76 114 -34 14 -244 20 -257 7z m210 -99 c20 -20 24 -31 19 -57 -8 -42 -30
-57 -83 -57 l-43 0 0 70 0 70 40 0 c31 0 47 -7 67 -26z m20 -176 c21 -22 22
-93 1 -114 -10 -11 -39 -19 -72 -22 l-56 -4 0 82 0 82 56 -4 c31 -3 62 -11 71
-20z"/>
<path d="M2975 781 c-49 -23 -89 -64 -109 -113 -21 -49 -21 -172 -1 -229 21
-60 77 -114 131 -129 53 -15 139 -8 183 15 117 60 148 294 54 406 -56 66 -174
89 -258 50z m146 -81 c35 -19 52 -70 52 -150 0 -80 -17 -131 -52 -150 -27 -14
-92 -12 -112 3 -30 23 -49 75 -49 135 0 84 9 118 38 147 27 27 86 34 123 15z"/>
<path d="M3400 556 c0 -151 4 -246 10 -248 5 -1 71 -2 145 0 l136 3 -3 37 -3
37 -90 1 -90 2 -3 206 -2 206 -50 0 -50 0 0 -244z"/>
</g>
</svg>
