<?xml version="1.0" standalone="no"?>
<!DOCTYPE svg PUBLIC "-//W3C//DTD SVG 20010904//EN"
 "http://www.w3.org/TR/2001/REC-SVG-20010904/DTD/svg10.dtd">
<svg version="1.0" xmlns="http://www.w3.org/2000/svg"
 width="740.000000pt" height="740.000000pt" viewBox="0 0 740.000000 740.000000"
 preserveAspectRatio="xMidYMid meet">

<g transform="translate(0.000000,740.000000) scale(0.100000,-0.100000)"
fill="#000000" stroke="none">
<path d="M900 6367 c0 -2 504 -676 1120 -1497 711 -948 1117 -1497 1111 -1504
-4 -6 -400 -534 -880 -1173 l-871 -1163 319 0 319 0 708 947 c390 521 714 953
720 962 9 12 147 -167 733 -947 l721 -962 801 0 c765 0 800 1 787 18 -18 25
-866 1153 -1598 2127 -339 451 -620 826 -624 833 -9 15 -88 -91 890 1213 451
602 829 1107 839 1123 l18 27 -284 -2 c-156 0 -301 -4 -321 -8 -36 -6 -63 -40
-749 -956 -391 -522 -715 -950 -721 -950 -5 0 -333 430 -727 955 l-718 955
-797 3 c-438 1 -796 1 -796 -1z m1640 -660 c135 -184 1334 -1802 1693 -2286
92 -124 240 -323 327 -441 88 -118 387 -521 665 -895 l506 -680 -328 -3 c-302
-2 -328 -1 -343 15 -9 10 -194 259 -412 553 -217 294 -644 873 -949 1285 -306
413 -785 1061 -1065 1440 -281 380 -586 791 -677 915 -92 124 -167 228 -167
233 0 4 145 7 323 7 l322 0 105 -143z"/>
</g>
</svg>
